<?xml version="1.0" standalone="no"?>
<!DOCTYPE svg PUBLIC "-//W3C//DTD SVG 20010904//EN"
 "http://www.w3.org/TR/2001/REC-SVG-20010904/DTD/svg10.dtd">
<svg version="1.0" xmlns="http://www.w3.org/2000/svg"
 width="580.000000pt" height="400.000000pt" viewBox="0 0 580.000000 400.000000"
 preserveAspectRatio="xMidYMid meet">

<g transform="translate(0.000000,400.000000) scale(0.100000,-0.100000)"
fill="#000000" stroke="none">
<path d="M1473 2851 c-44 -32 -69 -63 -103 -131 -24 -47 -29 -61 -60 -175 -22
-84 -45 -310 -36 -359 10 -54 51 -71 86 -36 16 16 20 33 20 83 0 171 56 414
110 479 25 29 29 31 45 18 14 -12 16 -25 10 -90 -15 -169 -96 -452 -171 -599
-19 -36 -34 -69 -34 -72 0 -7 100 -42 105 -37 20 19 107 240 144 363 61 201
89 437 60 512 -30 79 -103 97 -176 44z"/>
<path d="M3078 2373 c-23 -28 -132 -262 -125 -269 3 -4 38 -9 77 -12 l70 -5
30 66 c16 36 37 93 46 126 16 56 16 62 0 85 -20 31 -75 36 -98 9z"/>
<path d="M2385 2096 c-64 -68 -60 -140 17 -306 37 -80 48 -169 25 -203 -12
-18 -28 -26 -62 -30 -50 -5 -69 -18 -80 -54 -4 -17 1 -30 20 -49 25 -25 31
-26 99 -21 99 7 184 47 268 125 61 58 66 65 70 113 6 55 21 80 39 62 7 -7 6
-24 -2 -57 -14 -57 1 -140 33 -181 23 -29 78 -55 117 -55 55 0 122 32 182 87
43 40 59 62 59 82 0 14 7 47 15 74 8 26 11 47 8 47 -3 0 -35 -26 -70 -57 -83
-75 -151 -123 -173 -123 -69 0 -65 147 9 301 12 23 21 46 21 51 0 4 -31 8 -69
8 l-69 0 -46 -62 c-116 -155 -274 -303 -306 -283 -18 11 -11 22 26 44 l37 22
-6 59 c-4 37 -21 89 -46 142 -21 46 -43 99 -48 118 -11 39 0 85 22 94 20 7 28
-10 15 -34 -9 -16 -7 -33 5 -71 9 -27 21 -49 26 -49 19 0 52 85 52 138 0 75
-27 102 -101 102 -49 0 -58 -3 -87 -34z"/>
<path d="M4149 2053 c-8 -10 -32 -47 -54 -83 -84 -141 -347 -420 -395 -420
-40 0 -25 56 49 174 130 209 142 249 87 274 -51 23 -75 2 -156 -134 -117 -197
-207 -295 -287 -310 -122 -23 -81 209 62 340 43 39 83 66 98 66 31 0 17 -25
-38 -68 -48 -37 -122 -129 -111 -139 8 -8 217 140 236 167 24 33 29 92 10 115
-21 25 -89 19 -159 -16 -186 -93 -336 -384 -261 -507 46 -75 134 -92 230 -44
51 26 55 30 58 67 6 69 42 66 42 -3 0 -46 46 -92 92 -92 71 0 126 29 215 114
112 105 161 168 174 222 12 48 25 62 41 46 23 -23 -73 -332 -152 -497 -57
-116 -89 -159 -109 -146 -11 7 -5 23 28 79 67 112 153 327 127 316 -15 -7
-137 -194 -175 -269 -17 -33 -36 -81 -42 -106 -11 -40 -10 -50 7 -85 17 -35
23 -39 61 -42 40 -3 47 1 92 46 82 82 163 268 244 563 77 278 90 339 78 365
-13 30 -70 34 -92 7z"/>
<path d="M4842 2024 c-81 -139 -241 -330 -355 -426 -60 -49 -95 -60 -117 -33
-17 20 -2 56 65 160 148 229 160 325 41 325 -47 0 -110 -34 -167 -90 -39 -38
-49 -56 -62 -110 -9 -36 -19 -76 -23 -90 -5 -19 7 -10 47 35 67 74 99 105 111
105 26 0 13 -40 -44 -132 -78 -126 -88 -148 -88 -199 0 -84 56 -135 136 -126
73 8 131 44 233 148 95 96 124 137 135 189 15 67 52 64 41 -4 -14 -87 -87
-318 -131 -415 -35 -77 -104 -191 -115 -191 -25 0 -17 36 25 110 41 74 103
217 121 280 l7 25 -20 -20 c-11 -11 -46 -58 -77 -105 -120 -182 -160 -306
-115 -362 49 -63 133 -19 210 111 37 63 111 244 139 341 8 25 20 65 27 90 29
98 94 362 94 383 0 32 -18 47 -57 47 -29 0 -37 -6 -61 -46z"/>
<path d="M2770 2047 c-29 -14 -40 -67 -18 -85 8 -6 85 -12 204 -14 168 -3 193
-1 217 15 31 20 35 49 9 75 -15 15 -41 18 -202 20 -133 1 -192 -2 -210 -11z"/>
<path d="M1775 2043 c-6 -5 -33 -44 -60 -88 -58 -96 -86 -132 -187 -248 -43
-49 -78 -93 -78 -98 0 -27 22 -49 50 -49 23 0 37 10 64 46 19 25 37 57 41 72
8 37 31 66 45 57 15 -9 8 -37 -37 -149 -29 -73 -33 -93 -24 -112 7 -17 19 -24
38 -24 38 0 47 8 73 60 66 130 268 385 305 385 32 0 27 -19 -33 -111 -77 -119
-92 -152 -92 -214 0 -161 159 -178 312 -33 72 68 178 198 178 218 0 16 -32 85
-40 84 -3 0 -27 -29 -55 -65 -27 -36 -87 -101 -133 -145 -73 -71 -87 -80 -115
-77 -54 5 -44 51 44 193 41 66 82 137 92 158 23 50 22 109 -1 130 -24 22 -84
22 -130 0 -42 -20 -142 -112 -192 -177 -33 -43 -70 -61 -70 -33 0 6 20 37 45
67 51 62 62 91 49 129 -7 20 -17 27 -44 29 -19 1 -40 -1 -45 -5z"/>
<path d="M5121 2033 c-19 -10 -59 -40 -90 -69 -58 -54 -56 -49 -88 -194 -4
-19 12 -6 67 53 39 42 78 77 86 77 25 0 15 -44 -22 -95 -74 -104 -105 -171
-107 -229 -1 -63 16 -102 55 -122 59 -31 144 -9 230 61 65 53 83 90 57 121
-20 24 -49 16 -101 -31 -51 -46 -86 -62 -113 -51 -31 11 -16 61 50 165 86 135
114 192 122 246 4 36 2 50 -12 65 -23 25 -86 26 -134 3z"/>
<path d="M835 1973 c-100 -13 -219 -65 -278 -122 -54 -50 -96 -134 -97 -189 0
-76 60 -171 131 -208 71 -36 260 -37 347 -2 75 30 102 44 162 83 94 62 230
197 230 229 0 8 -20 17 -49 23 l-50 10 -65 -64 c-67 -65 -173 -139 -238 -166
-20 -8 -70 -21 -111 -27 -63 -11 -82 -10 -130 4 -72 21 -97 51 -97 118 0 86
47 137 166 180 146 53 454 28 626 -51 78 -35 118 -25 118 31 0 33 -19 47 -115
84 -98 37 -162 52 -263 64 -84 10 -226 11 -287 3z"/>
</g>
</svg>
